<svg width="96" height="96" viewBox="0 0 96 96" fill="none" xmlns="http://www.w3.org/2000/svg">
<rect width="96" height="96" rx="48" fill="#DCFCE7"/>
<path d="M21.4987 48.928C21.2765 48.3293 21.2765 47.6707 21.4987 47.072C23.6632 41.8236 27.3374 37.3361 32.0554 34.1784C36.7734 31.0207 42.3228 29.335 48 29.335C53.6773 29.335 59.2266 31.0207 63.9447 34.1784C68.6627 37.3361 72.3368 41.8236 74.5014 47.072C74.7236 47.6707 74.7236 48.3293 74.5014 48.928C72.3368 54.1764 68.6627 58.6639 63.9447 61.8216C59.2266 64.9793 53.6773 66.665 48 66.665C42.3228 66.665 36.7734 64.9793 32.0554 61.8216C27.3374 58.6639 23.6632 54.1764 21.4987 48.928Z" stroke="#15803D" stroke-width="2" stroke-linecap="round" stroke-linejoin="round"/>
<path d="M48 56C52.4183 56 56 52.4183 56 48C56 43.5817 52.4183 40 48 40C43.5818 40 40 43.5817 40 48C40 52.4183 43.5818 56 48 56Z" stroke="#15803D" stroke-width="2" stroke-linecap="round" stroke-linejoin="round"/>
</svg>
