<svg width="232" height="232" viewBox="0 0 232 232" fill="none" xmlns="http://www.w3.org/2000/svg">
<rect width="232" height="232" fill="#F4F4F5"/>
<path d="M50.4659 110.818V121H49.233V110.818H50.4659ZM52.7789 121V113.364H53.9125V114.557H54.0119C54.171 114.149 54.4279 113.833 54.7825 113.607C55.1371 113.379 55.563 113.264 56.0602 113.264C56.564 113.264 56.9833 113.379 57.318 113.607C57.6561 113.833 57.9196 114.149 58.1085 114.557H58.188C58.3836 114.162 58.6769 113.849 59.068 113.617C59.4591 113.382 59.9281 113.264 60.475 113.264C61.1577 113.264 61.7162 113.478 62.1504 113.906C62.5846 114.33 62.8017 114.991 62.8017 115.889V121H61.6284V115.889C61.6284 115.326 61.4743 114.923 61.166 114.681C60.8578 114.439 60.4949 114.318 60.0772 114.318C59.5403 114.318 59.1243 114.481 58.8294 114.805C58.5344 115.127 58.3869 115.535 58.3869 116.028V121H57.1937V115.77C57.1937 115.336 57.0529 114.986 56.7711 114.721C56.4894 114.452 56.1265 114.318 55.6824 114.318C55.3774 114.318 55.0924 114.399 54.8272 114.562C54.5654 114.724 54.3533 114.95 54.1909 115.238C54.0318 115.523 53.9522 115.853 53.9522 116.227V121H52.7789ZM67.1941 121.179C66.7102 121.179 66.271 121.088 65.8766 120.906C65.4822 120.72 65.169 120.453 64.937 120.105C64.705 119.754 64.589 119.33 64.589 118.832C64.589 118.395 64.6751 118.04 64.8475 117.768C65.0198 117.493 65.2502 117.278 65.5385 117.122C65.8269 116.966 66.1451 116.85 66.4931 116.774C66.8444 116.695 67.1974 116.632 67.552 116.585C68.016 116.526 68.3922 116.481 68.6806 116.451C68.9722 116.418 69.1844 116.363 69.3169 116.287C69.4528 116.211 69.5208 116.078 69.5208 115.889V115.849C69.5208 115.359 69.3865 114.978 69.1181 114.706C68.8529 114.434 68.4502 114.298 67.91 114.298C67.3498 114.298 66.9107 114.421 66.5925 114.666C66.2743 114.911 66.0506 115.173 65.9213 115.452L64.8077 115.054C65.0066 114.59 65.2717 114.229 65.6032 113.97C65.9379 113.708 66.3025 113.526 66.6969 113.423C67.0946 113.317 67.4857 113.264 67.8702 113.264C68.1155 113.264 68.3972 113.294 68.7154 113.354C69.0369 113.41 69.3468 113.528 69.6451 113.707C69.9467 113.886 70.1969 114.156 70.3958 114.517C70.5946 114.878 70.6941 115.362 70.6941 115.969V121H69.5208V119.966H69.4611C69.3816 120.132 69.249 120.309 69.0634 120.498C68.8778 120.687 68.6309 120.848 68.3226 120.98C68.0144 121.113 67.6382 121.179 67.1941 121.179ZM67.373 120.125C67.8371 120.125 68.2282 120.034 68.5463 119.852C68.8678 119.669 69.1098 119.434 69.2722 119.146C69.4379 118.857 69.5208 118.554 69.5208 118.236V117.162C69.4711 117.222 69.3617 117.276 69.1926 117.326C69.0269 117.372 68.8347 117.414 68.6159 117.45C68.4005 117.483 68.19 117.513 67.9846 117.54C67.7824 117.563 67.6183 117.583 67.4924 117.599C67.1874 117.639 66.9024 117.704 66.6373 117.793C66.3754 117.879 66.1633 118.01 66.0009 118.186C65.8418 118.358 65.7623 118.594 65.7623 118.892C65.7623 119.3 65.9131 119.608 66.2147 119.817C66.5196 120.022 66.9057 120.125 67.373 120.125ZM75.918 124.023C75.3512 124.023 74.864 123.95 74.4563 123.804C74.0487 123.661 73.7089 123.473 73.4371 123.237C73.1687 123.005 72.9549 122.757 72.7958 122.491L73.7305 121.835C73.8365 121.974 73.9708 122.134 74.1332 122.312C74.2956 122.495 74.5176 122.652 74.7994 122.785C75.0844 122.921 75.4573 122.989 75.918 122.989C76.5344 122.989 77.0432 122.839 77.4442 122.541C77.8453 122.243 78.0458 121.776 78.0458 121.139V119.588H77.9464C77.8602 119.727 77.7376 119.9 77.5785 120.105C77.4227 120.307 77.1973 120.488 76.9023 120.647C76.6107 120.803 76.2163 120.881 75.7191 120.881C75.1026 120.881 74.5491 120.735 74.0586 120.443C73.5714 120.152 73.1853 119.727 72.9002 119.17C72.6185 118.614 72.4776 117.937 72.4776 117.142C72.4776 116.36 72.6152 115.679 72.8903 115.099C73.1654 114.515 73.5482 114.065 74.0387 113.746C74.5292 113.425 75.096 113.264 75.739 113.264C76.2362 113.264 76.6306 113.347 76.9222 113.513C77.2172 113.675 77.4426 113.861 77.5984 114.07C77.7575 114.275 77.8801 114.444 77.9663 114.577H78.0856V113.364H79.2191V121.219C79.2191 121.875 79.07 122.409 78.7717 122.82C78.4767 123.234 78.079 123.537 77.5785 123.729C77.0813 123.925 76.5278 124.023 75.918 124.023ZM75.8782 119.827C76.3488 119.827 76.7466 119.719 77.0714 119.504C77.3962 119.288 77.6431 118.978 77.8121 118.574C77.9812 118.17 78.0657 117.686 78.0657 117.122C78.0657 116.572 77.9828 116.086 77.8171 115.665C77.6514 115.245 77.4061 114.915 77.0813 114.676C76.7565 114.437 76.3555 114.318 75.8782 114.318C75.381 114.318 74.9667 114.444 74.6353 114.696C74.3072 114.948 74.0603 115.286 73.8945 115.71C73.7321 116.134 73.6509 116.605 73.6509 117.122C73.6509 117.652 73.7338 118.121 73.8995 118.529C74.0685 118.933 74.3171 119.252 74.6452 119.484C74.9767 119.712 75.3877 119.827 75.8782 119.827ZM84.5685 121.159C83.8327 121.159 83.198 120.997 82.6644 120.672C82.1341 120.344 81.7248 119.886 81.4364 119.3C81.1514 118.71 81.0089 118.024 81.0089 117.241C81.0089 116.459 81.1514 115.77 81.4364 115.173C81.7248 114.573 82.1258 114.106 82.6396 113.771C83.1566 113.433 83.7598 113.264 84.4492 113.264C84.8469 113.264 85.2397 113.33 85.6275 113.463C86.0153 113.596 86.3683 113.811 86.6864 114.109C87.0046 114.404 87.2582 114.795 87.4471 115.283C87.636 115.77 87.7305 116.37 87.7305 117.082V117.58H81.8441V116.565H86.5373C86.5373 116.134 86.4511 115.75 86.2788 115.412C86.1097 115.074 85.8678 114.807 85.5529 114.612C85.2414 114.416 84.8735 114.318 84.4492 114.318C83.9819 114.318 83.5775 114.434 83.2362 114.666C82.8981 114.895 82.6379 115.193 82.4556 115.561C82.2733 115.929 82.1822 116.323 82.1822 116.744V117.42C82.1822 117.997 82.2816 118.486 82.4805 118.887C82.6826 119.285 82.9627 119.588 83.3207 119.797C83.6786 120.002 84.0946 120.105 84.5685 120.105C84.8768 120.105 85.1552 120.062 85.4038 119.976C85.6557 119.886 85.8728 119.754 86.055 119.578C86.2373 119.399 86.3782 119.177 86.4776 118.912L87.6112 119.23C87.4918 119.615 87.2913 119.953 87.0096 120.244C86.7279 120.533 86.3799 120.758 85.9656 120.92C85.5513 121.08 85.0856 121.159 84.5685 121.159ZM89.5153 121V113.364H90.6488V114.557H90.7482C90.9073 114.149 91.1642 113.833 91.5188 113.607C91.8735 113.379 92.2994 113.264 92.7965 113.264C93.3003 113.264 93.7196 113.379 94.0543 113.607C94.3924 113.833 94.6559 114.149 94.8448 114.557H94.9244C95.1199 114.162 95.4132 113.849 95.8043 113.617C96.1954 113.382 96.6644 113.264 97.2113 113.264C97.8941 113.264 98.4525 113.478 98.8867 113.906C99.3209 114.33 99.538 114.991 99.538 115.889V121H98.3647V115.889C98.3647 115.326 98.2106 114.923 97.9023 114.681C97.5941 114.439 97.2312 114.318 96.8136 114.318C96.2766 114.318 95.8607 114.481 95.5657 114.805C95.2707 115.127 95.1232 115.535 95.1232 116.028V121H93.93V115.77C93.93 115.336 93.7892 114.986 93.5075 114.721C93.2257 114.452 92.8628 114.318 92.4187 114.318C92.1138 114.318 91.8287 114.399 91.5636 114.562C91.3017 114.724 91.0896 114.95 90.9272 115.238C90.7681 115.523 90.6886 115.853 90.6886 116.227V121H89.5153ZM105.621 121V113.364H106.794V121H105.621ZM106.217 112.091C105.989 112.091 105.791 112.013 105.626 111.857C105.463 111.701 105.382 111.514 105.382 111.295C105.382 111.077 105.463 110.889 105.626 110.734C105.791 110.578 105.989 110.5 106.217 110.5C106.446 110.5 106.642 110.578 106.804 110.734C106.97 110.889 107.053 111.077 107.053 111.295C107.053 111.514 106.97 111.701 106.804 111.857C106.642 112.013 106.446 112.091 106.217 112.091ZM110.116 116.406V121H108.943V113.364H110.077V114.557H110.176C110.355 114.169 110.627 113.857 110.991 113.622C111.356 113.384 111.827 113.264 112.403 113.264C112.92 113.264 113.373 113.37 113.76 113.582C114.148 113.791 114.45 114.109 114.665 114.537C114.881 114.961 114.988 115.498 114.988 116.148V121H113.815V116.227C113.815 115.627 113.659 115.16 113.348 114.825C113.036 114.487 112.609 114.318 112.065 114.318C111.691 114.318 111.356 114.399 111.061 114.562C110.769 114.724 110.539 114.961 110.37 115.273C110.201 115.584 110.116 115.962 110.116 116.406ZM120.016 121.159C119.38 121.159 118.818 120.998 118.331 120.677C117.843 120.352 117.462 119.895 117.187 119.305C116.912 118.711 116.775 118.01 116.775 117.202C116.775 116.4 116.912 115.704 117.187 115.114C117.462 114.524 117.845 114.068 118.336 113.746C118.826 113.425 119.393 113.264 120.036 113.264C120.533 113.264 120.926 113.347 121.214 113.513C121.506 113.675 121.728 113.861 121.88 114.07C122.036 114.275 122.157 114.444 122.243 114.577H122.343V110.818H123.516V121H122.382V119.827H122.243C122.157 119.966 122.034 120.142 121.875 120.354C121.716 120.562 121.489 120.75 121.194 120.915C120.899 121.078 120.507 121.159 120.016 121.159ZM120.175 120.105C120.646 120.105 121.043 119.982 121.368 119.737C121.693 119.489 121.94 119.146 122.109 118.708C122.278 118.267 122.363 117.759 122.363 117.182C122.363 116.612 122.28 116.113 122.114 115.685C121.948 115.254 121.703 114.92 121.378 114.681C121.053 114.439 120.652 114.318 120.175 114.318C119.678 114.318 119.264 114.446 118.932 114.701C118.604 114.953 118.357 115.296 118.191 115.73C118.029 116.161 117.948 116.645 117.948 117.182C117.948 117.725 118.031 118.219 118.196 118.663C118.365 119.104 118.614 119.455 118.942 119.717C119.274 119.976 119.685 120.105 120.175 120.105ZM125.828 121V113.364H127.001V121H125.828ZM126.424 112.091C126.196 112.091 125.998 112.013 125.833 111.857C125.67 111.701 125.589 111.514 125.589 111.295C125.589 111.077 125.67 110.889 125.833 110.734C125.998 110.578 126.196 110.5 126.424 110.5C126.653 110.5 126.849 110.578 127.011 110.734C127.177 110.889 127.26 111.077 127.26 111.295C127.26 111.514 127.177 111.701 127.011 111.857C126.849 112.013 126.653 112.091 126.424 112.091ZM134.559 115.074L133.505 115.372C133.439 115.196 133.341 115.026 133.212 114.86C133.086 114.691 132.914 114.552 132.695 114.442C132.476 114.333 132.196 114.278 131.855 114.278C131.387 114.278 130.998 114.386 130.686 114.602C130.378 114.814 130.224 115.084 130.224 115.412C130.224 115.704 130.33 115.934 130.542 116.103C130.754 116.272 131.086 116.413 131.536 116.526L132.67 116.804C133.353 116.97 133.861 117.223 134.196 117.565C134.531 117.903 134.698 118.339 134.698 118.872C134.698 119.31 134.572 119.701 134.32 120.045C134.072 120.39 133.724 120.662 133.276 120.861C132.829 121.06 132.309 121.159 131.715 121.159C130.936 121.159 130.292 120.99 129.781 120.652C129.271 120.314 128.948 119.82 128.812 119.17L129.926 118.892C130.032 119.303 130.232 119.611 130.527 119.817C130.825 120.022 131.215 120.125 131.695 120.125C132.242 120.125 132.677 120.009 132.998 119.777C133.323 119.542 133.485 119.26 133.485 118.932C133.485 118.667 133.392 118.445 133.207 118.266C133.021 118.083 132.736 117.947 132.352 117.858L131.079 117.56C130.38 117.394 129.866 117.137 129.538 116.789C129.213 116.438 129.051 115.999 129.051 115.472C129.051 115.041 129.172 114.66 129.414 114.328C129.659 113.997 129.992 113.737 130.413 113.548C130.837 113.359 131.318 113.264 131.855 113.264C132.61 113.264 133.204 113.43 133.634 113.761C134.069 114.093 134.377 114.53 134.559 115.074ZM136.464 123.864V113.364H137.598V114.577H137.737C137.823 114.444 137.943 114.275 138.095 114.07C138.251 113.861 138.473 113.675 138.761 113.513C139.053 113.347 139.447 113.264 139.945 113.264C140.588 113.264 141.154 113.425 141.645 113.746C142.135 114.068 142.518 114.524 142.793 115.114C143.068 115.704 143.206 116.4 143.206 117.202C143.206 118.01 143.068 118.711 142.793 119.305C142.518 119.895 142.137 120.352 141.65 120.677C141.163 120.998 140.601 121.159 139.964 121.159C139.474 121.159 139.081 121.078 138.786 120.915C138.491 120.75 138.264 120.562 138.105 120.354C137.946 120.142 137.823 119.966 137.737 119.827H137.638V123.864H136.464ZM137.618 117.182C137.618 117.759 137.702 118.267 137.871 118.708C138.04 119.146 138.287 119.489 138.612 119.737C138.937 119.982 139.335 120.105 139.805 120.105C140.296 120.105 140.705 119.976 141.033 119.717C141.365 119.455 141.613 119.104 141.779 118.663C141.948 118.219 142.033 117.725 142.033 117.182C142.033 116.645 141.95 116.161 141.784 115.73C141.622 115.296 141.375 114.953 141.043 114.701C140.715 114.446 140.303 114.318 139.805 114.318C139.328 114.318 138.927 114.439 138.602 114.681C138.277 114.92 138.032 115.254 137.866 115.685C137.701 116.113 137.618 116.612 137.618 117.182ZM148.098 121.159C147.409 121.159 146.804 120.995 146.283 120.667C145.766 120.339 145.362 119.88 145.07 119.29C144.782 118.7 144.638 118.01 144.638 117.222C144.638 116.426 144.782 115.732 145.07 115.138C145.362 114.545 145.766 114.085 146.283 113.756C146.804 113.428 147.409 113.264 148.098 113.264C148.787 113.264 149.391 113.428 149.908 113.756C150.428 114.085 150.832 114.545 151.121 115.138C151.412 115.732 151.558 116.426 151.558 117.222C151.558 118.01 151.412 118.7 151.121 119.29C150.832 119.88 150.428 120.339 149.908 120.667C149.391 120.995 148.787 121.159 148.098 121.159ZM148.098 120.105C148.622 120.105 149.053 119.971 149.391 119.702C149.729 119.434 149.979 119.081 150.141 118.643C150.304 118.206 150.385 117.732 150.385 117.222C150.385 116.711 150.304 116.236 150.141 115.795C149.979 115.354 149.729 114.998 149.391 114.726C149.053 114.454 148.622 114.318 148.098 114.318C147.574 114.318 147.143 114.454 146.805 114.726C146.467 114.998 146.217 115.354 146.055 115.795C145.892 116.236 145.811 116.711 145.811 117.222C145.811 117.732 145.892 118.206 146.055 118.643C146.217 119.081 146.467 119.434 146.805 119.702C147.143 119.971 147.574 120.105 148.098 120.105ZM154.523 116.406V121H153.349V113.364H154.483V114.557H154.582C154.761 114.169 155.033 113.857 155.398 113.622C155.762 113.384 156.233 113.264 156.809 113.264C157.327 113.264 157.779 113.37 158.167 113.582C158.555 113.791 158.856 114.109 159.072 114.537C159.287 114.961 159.395 115.498 159.395 116.148V121H158.221V116.227C158.221 115.627 158.066 115.16 157.754 114.825C157.443 114.487 157.015 114.318 156.471 114.318C156.097 114.318 155.762 114.399 155.467 114.562C155.175 114.724 154.945 114.961 154.776 115.273C154.607 115.584 154.523 115.962 154.523 116.406ZM161.539 121V113.364H162.712V121H161.539ZM161.598 112.33L162.811 110.023H164.184L162.632 112.33H161.598ZM171.105 113.364L168.281 121H167.088L164.264 113.364H165.537L167.645 119.449H167.725L169.833 113.364H171.105ZM175.582 121.159C174.846 121.159 174.212 120.997 173.678 120.672C173.148 120.344 172.738 119.886 172.45 119.3C172.165 118.71 172.023 118.024 172.023 117.241C172.023 116.459 172.165 115.77 172.45 115.173C172.738 114.573 173.14 114.106 173.653 113.771C174.17 113.433 174.773 113.264 175.463 113.264C175.861 113.264 176.253 113.33 176.641 113.463C177.029 113.596 177.382 113.811 177.7 114.109C178.018 114.404 178.272 114.795 178.461 115.283C178.65 115.77 178.744 116.37 178.744 117.082V117.58H172.858V116.565H177.551C177.551 116.134 177.465 115.75 177.292 115.412C177.123 115.074 176.881 114.807 176.567 114.612C176.255 114.416 175.887 114.318 175.463 114.318C174.996 114.318 174.591 114.434 174.25 114.666C173.912 114.895 173.652 115.193 173.469 115.561C173.287 115.929 173.196 116.323 173.196 116.744V117.42C173.196 117.997 173.295 118.486 173.494 118.887C173.696 119.285 173.976 119.588 174.334 119.797C174.692 120.002 175.108 120.105 175.582 120.105C175.89 120.105 176.169 120.062 176.417 119.976C176.669 119.886 176.886 119.754 177.069 119.578C177.251 119.399 177.392 119.177 177.491 118.912L178.625 119.23C178.506 119.615 178.305 119.953 178.023 120.244C177.742 120.533 177.394 120.758 176.979 120.92C176.565 121.08 176.099 121.159 175.582 121.159ZM181.702 110.818V121H180.529V110.818H181.702Z" fill="black"/>
</svg>
