<svg width="216" height="24" viewBox="0 0 216 24" fill="none" xmlns="http://www.w3.org/2000/svg">
<path d="M1.01136 17.5V5.86364H3.47159V10.6648H8.46591V5.86364H10.9205V17.5H8.46591V12.6932H3.47159V17.5H1.01136ZM15.392 17.6648C14.8352 17.6648 14.339 17.5682 13.9034 17.375C13.4678 17.178 13.1231 16.8883 12.8693 16.5057C12.6193 16.1193 12.4943 15.6383 12.4943 15.0625C12.4943 14.5777 12.5833 14.1705 12.7614 13.8409C12.9394 13.5114 13.1818 13.2462 13.4886 13.0455C13.7955 12.8447 14.1439 12.6932 14.5341 12.5909C14.928 12.4886 15.3409 12.4167 15.7727 12.375C16.2803 12.322 16.6894 12.2727 17 12.2273C17.3106 12.178 17.536 12.1061 17.6761 12.0114C17.8163 11.9167 17.8864 11.7765 17.8864 11.5909V11.5568C17.8864 11.197 17.7727 10.9186 17.5455 10.7216C17.322 10.5246 17.0038 10.4261 16.5909 10.4261C16.1553 10.4261 15.8087 10.5227 15.5511 10.7159C15.2936 10.9053 15.1231 11.1439 15.0398 11.4318L12.8011 11.25C12.9148 10.7197 13.1383 10.2614 13.4716 9.875C13.8049 9.48485 14.2348 9.18561 14.7614 8.97727C15.2917 8.76515 15.9053 8.65909 16.6023 8.65909C17.0871 8.65909 17.5511 8.71591 17.9943 8.82955C18.4413 8.94318 18.8371 9.11932 19.1818 9.35795C19.5303 9.59659 19.8049 9.90341 20.0057 10.2784C20.2064 10.6496 20.3068 11.0947 20.3068 11.6136V17.5H18.0114V16.2898H17.9432C17.803 16.5625 17.6155 16.803 17.3807 17.0114C17.1458 17.2159 16.8636 17.3769 16.5341 17.4943C16.2045 17.608 15.8239 17.6648 15.392 17.6648ZM16.0852 15.9943C16.4413 15.9943 16.7557 15.9242 17.0284 15.7841C17.3011 15.6402 17.5152 15.447 17.6705 15.2045C17.8258 14.9621 17.9034 14.6875 17.9034 14.3807V13.4545C17.8277 13.5038 17.7235 13.5492 17.5909 13.5909C17.4621 13.6288 17.3163 13.6648 17.1534 13.6989C16.9905 13.7292 16.8277 13.7576 16.6648 13.7841C16.5019 13.8068 16.3542 13.8277 16.2216 13.8466C15.9375 13.8883 15.6894 13.9545 15.4773 14.0455C15.2652 14.1364 15.1004 14.2595 14.983 14.4148C14.8655 14.5663 14.8068 14.7557 14.8068 14.983C14.8068 15.3125 14.9261 15.5644 15.1648 15.7386C15.4072 15.9091 15.714 15.9943 16.0852 15.9943ZM22.1847 17.5V8.77273H24.5312V10.2955H24.6222C24.7813 9.75379 25.0483 9.3447 25.4233 9.06818C25.7983 8.78788 26.2301 8.64773 26.7188 8.64773C26.84 8.64773 26.9706 8.6553 27.1108 8.67045C27.2509 8.68561 27.3741 8.70644 27.4801 8.73295V10.8807C27.3665 10.8466 27.2093 10.8163 27.0085 10.7898C26.8078 10.7633 26.6241 10.75 26.4574 10.75C26.1013 10.75 25.7831 10.8277 25.5028 10.983C25.2263 11.1345 25.0066 11.3466 24.8438 11.6193C24.6847 11.892 24.6051 12.2064 24.6051 12.5625V17.5H22.1847ZM31.5412 17.642C30.8783 17.642 30.2779 17.4716 29.7401 17.1307C29.206 16.786 28.7817 16.2803 28.4673 15.6136C28.1567 14.9432 28.0014 14.1212 28.0014 13.1477C28.0014 12.1477 28.1624 11.3163 28.4844 10.6534C28.8063 9.98674 29.2344 9.48864 29.7685 9.15909C30.3063 8.82576 30.8954 8.65909 31.5355 8.65909C32.0241 8.65909 32.4313 8.74242 32.7571 8.90909C33.0866 9.07197 33.3518 9.27652 33.5526 9.52273C33.7571 9.76515 33.9124 10.0038 34.0185 10.2386H34.0923V5.86364H36.5071V17.5H34.1207V16.1023H34.0185C33.9048 16.3447 33.7438 16.5852 33.5355 16.8239C33.331 17.0587 33.0639 17.2538 32.7344 17.4091C32.4086 17.5644 32.0109 17.642 31.5412 17.642ZM32.3082 15.7159C32.6984 15.7159 33.0279 15.6098 33.2969 15.3977C33.5696 15.1818 33.7779 14.8807 33.9219 14.4943C34.0696 14.108 34.1435 13.6553 34.1435 13.1364C34.1435 12.6174 34.0715 12.1667 33.9276 11.7841C33.7836 11.4015 33.5753 11.1061 33.3026 10.8977C33.0298 10.6894 32.6984 10.5852 32.3082 10.5852C31.9105 10.5852 31.5753 10.6932 31.3026 10.9091C31.0298 11.125 30.8234 11.4242 30.6832 11.8068C30.5431 12.1894 30.473 12.6326 30.473 13.1364C30.473 13.6439 30.5431 14.0928 30.6832 14.483C30.8272 14.8693 31.0336 15.1723 31.3026 15.392C31.5753 15.608 31.9105 15.7159 32.3082 15.7159ZM40.2188 17.5L37.8438 8.77273H40.2926L41.6449 14.6364H41.7244L43.1335 8.77273H45.5369L46.9688 14.6023H47.0426L48.3722 8.77273H50.8153L48.446 17.5H45.8835L44.3835 12.0114H44.2756L42.7756 17.5H40.2188ZM54.5952 17.6648C54.0384 17.6648 53.5421 17.5682 53.1065 17.375C52.6709 17.178 52.3262 16.8883 52.0724 16.5057C51.8224 16.1193 51.6974 15.6383 51.6974 15.0625C51.6974 14.5777 51.7865 14.1705 51.9645 13.8409C52.1425 13.5114 52.3849 13.2462 52.6918 13.0455C52.9986 12.8447 53.3471 12.6932 53.7372 12.5909C54.1312 12.4886 54.544 12.4167 54.9759 12.375C55.4834 12.322 55.8925 12.2727 56.2031 12.2273C56.5137 12.178 56.7391 12.1061 56.8793 12.0114C57.0194 11.9167 57.0895 11.7765 57.0895 11.5909V11.5568C57.0895 11.197 56.9759 10.9186 56.7486 10.7216C56.5251 10.5246 56.2069 10.4261 55.794 10.4261C55.3584 10.4261 55.0118 10.5227 54.7543 10.7159C54.4967 10.9053 54.3262 11.1439 54.2429 11.4318L52.0043 11.25C52.1179 10.7197 52.3414 10.2614 52.6747 9.875C53.008 9.48485 53.438 9.18561 53.9645 8.97727C54.4948 8.76515 55.1084 8.65909 55.8054 8.65909C56.2902 8.65909 56.7543 8.71591 57.1974 8.82955C57.6444 8.94318 58.0402 9.11932 58.3849 9.35795C58.7334 9.59659 59.008 9.90341 59.2088 10.2784C59.4096 10.6496 59.5099 11.0947 59.5099 11.6136V17.5H57.2145V16.2898H57.1463C57.0062 16.5625 56.8187 16.803 56.5838 17.0114C56.349 17.2159 56.0668 17.3769 55.7372 17.4943C55.4077 17.608 55.027 17.6648 54.5952 17.6648ZM55.2884 15.9943C55.6444 15.9943 55.9588 15.9242 56.2315 15.7841C56.5043 15.6402 56.7183 15.447 56.8736 15.2045C57.0289 14.9621 57.1065 14.6875 57.1065 14.3807V13.4545C57.0308 13.5038 56.9266 13.5492 56.794 13.5909C56.6652 13.6288 56.5194 13.6648 56.3565 13.6989C56.1937 13.7292 56.0308 13.7576 55.8679 13.7841C55.705 13.8068 55.5573 13.8277 55.4247 13.8466C55.1406 13.8883 54.8925 13.9545 54.6804 14.0455C54.4683 14.1364 54.3035 14.2595 54.1861 14.4148C54.0687 14.5663 54.0099 14.7557 54.0099 14.983C54.0099 15.3125 54.1293 15.5644 54.3679 15.7386C54.6103 15.9091 54.9171 15.9943 55.2884 15.9943ZM61.3878 17.5V8.77273H63.7344V10.2955H63.8253C63.9844 9.75379 64.2514 9.3447 64.6264 9.06818C65.0014 8.78788 65.4332 8.64773 65.9219 8.64773C66.0431 8.64773 66.1738 8.6553 66.3139 8.67045C66.4541 8.68561 66.5772 8.70644 66.6832 8.73295V10.8807C66.5696 10.8466 66.4124 10.8163 66.2116 10.7898C66.0109 10.7633 65.8272 10.75 65.6605 10.75C65.3045 10.75 64.9863 10.8277 64.706 10.983C64.4295 11.1345 64.2098 11.3466 64.0469 11.6193C63.8878 11.892 63.8082 12.2064 63.8082 12.5625V17.5H61.3878ZM71.5057 17.6705C70.608 17.6705 69.8352 17.4886 69.1875 17.125C68.5436 16.7576 68.0473 16.2386 67.6989 15.5682C67.3504 14.8939 67.1761 14.0966 67.1761 13.1761C67.1761 12.2784 67.3504 11.4905 67.6989 10.8125C68.0473 10.1345 68.5379 9.60606 69.1705 9.22727C69.8068 8.84848 70.553 8.65909 71.4091 8.65909C71.9848 8.65909 72.5208 8.75189 73.017 8.9375C73.517 9.11932 73.9527 9.39394 74.3239 9.76136C74.6989 10.1288 74.9905 10.5909 75.1989 11.1477C75.4072 11.7008 75.5114 12.3485 75.5114 13.0909V13.7557H68.142V12.2557H73.233C73.233 11.9072 73.1572 11.5985 73.0057 11.3295C72.8542 11.0606 72.6439 10.8504 72.375 10.6989C72.1098 10.5436 71.8011 10.4659 71.4489 10.4659C71.0814 10.4659 70.7557 10.5511 70.4716 10.7216C70.1913 10.8883 69.9716 11.1136 69.8125 11.3977C69.6534 11.678 69.572 11.9905 69.5682 12.3352V13.7614C69.5682 14.1932 69.6477 14.5663 69.8068 14.8807C69.9697 15.1951 70.1989 15.4375 70.4943 15.608C70.7898 15.7784 71.1402 15.8636 71.5455 15.8636C71.8144 15.8636 72.0606 15.8258 72.2841 15.75C72.5076 15.6742 72.6989 15.5606 72.858 15.4091C73.017 15.2576 73.1383 15.072 73.2216 14.8523L75.4602 15C75.3466 15.5379 75.1136 16.0076 74.7614 16.4091C74.4129 16.8068 73.9621 17.1174 73.4091 17.3409C72.8598 17.5606 72.2254 17.6705 71.5057 17.6705ZM124.318 7.89205V5.86364H133.875V7.89205H130.312V17.5H127.881V7.89205H124.318ZM134.497 17.5V8.77273H136.844V10.2955H136.935C137.094 9.75379 137.361 9.3447 137.736 9.06818C138.111 8.78788 138.543 8.64773 139.031 8.64773C139.152 8.64773 139.283 8.6553 139.423 8.67045C139.563 8.68561 139.687 8.70644 139.793 8.73295V10.8807C139.679 10.8466 139.522 10.8163 139.321 10.7898C139.12 10.7633 138.937 10.75 138.77 10.75C138.414 10.75 138.096 10.8277 137.815 10.983C137.539 11.1345 137.319 11.3466 137.156 11.6193C136.997 11.892 136.918 12.2064 136.918 12.5625V17.5H134.497ZM143.283 17.6648C142.726 17.6648 142.23 17.5682 141.794 17.375C141.358 17.178 141.014 16.8883 140.76 16.5057C140.51 16.1193 140.385 15.6383 140.385 15.0625C140.385 14.5777 140.474 14.1705 140.652 13.8409C140.83 13.5114 141.072 13.2462 141.379 13.0455C141.686 12.8447 142.035 12.6932 142.425 12.5909C142.819 12.4886 143.232 12.4167 143.663 12.375C144.171 12.322 144.58 12.2727 144.891 12.2273C145.201 12.178 145.427 12.1061 145.567 12.0114C145.707 11.9167 145.777 11.7765 145.777 11.5909V11.5568C145.777 11.197 145.663 10.9186 145.436 10.7216C145.213 10.5246 144.894 10.4261 144.482 10.4261C144.046 10.4261 143.699 10.5227 143.442 10.7159C143.184 10.9053 143.014 11.1439 142.93 11.4318L140.692 11.25C140.805 10.7197 141.029 10.2614 141.362 9.875C141.696 9.48485 142.125 9.18561 142.652 8.97727C143.182 8.76515 143.796 8.65909 144.493 8.65909C144.978 8.65909 145.442 8.71591 145.885 8.82955C146.332 8.94318 146.728 9.11932 147.072 9.35795C147.421 9.59659 147.696 9.90341 147.896 10.2784C148.097 10.6496 148.197 11.0947 148.197 11.6136V17.5H145.902V16.2898H145.834C145.694 16.5625 145.506 16.803 145.271 17.0114C145.036 17.2159 144.754 17.3769 144.425 17.4943C144.095 17.608 143.714 17.6648 143.283 17.6648ZM143.976 15.9943C144.332 15.9943 144.646 15.9242 144.919 15.7841C145.192 15.6402 145.406 15.447 145.561 15.2045C145.716 14.9621 145.794 14.6875 145.794 14.3807V13.4545C145.718 13.5038 145.614 13.5492 145.482 13.5909C145.353 13.6288 145.207 13.6648 145.044 13.6989C144.881 13.7292 144.718 13.7576 144.555 13.7841C144.393 13.8068 144.245 13.8277 144.112 13.8466C143.828 13.8883 143.58 13.9545 143.368 14.0455C143.156 14.1364 142.991 14.2595 142.874 14.4148C142.756 14.5663 142.697 14.7557 142.697 14.983C142.697 15.3125 142.817 15.5644 143.055 15.7386C143.298 15.9091 143.605 15.9943 143.976 15.9943ZM154.018 17.6705C153.125 17.6705 152.356 17.4811 151.712 17.1023C151.071 16.7197 150.579 16.1894 150.234 15.5114C149.893 14.8333 149.723 14.053 149.723 13.1705C149.723 12.2765 149.895 11.4924 150.24 10.8182C150.589 10.1402 151.083 9.61174 151.723 9.23295C152.363 8.85038 153.125 8.65909 154.007 8.65909C154.768 8.65909 155.435 8.79735 156.007 9.07386C156.579 9.35038 157.032 9.73864 157.365 10.2386C157.698 10.7386 157.882 11.3258 157.916 12H155.632C155.568 11.5644 155.397 11.214 155.121 10.9489C154.848 10.6799 154.49 10.5455 154.047 10.5455C153.672 10.5455 153.344 10.6477 153.064 10.8523C152.787 11.053 152.571 11.3466 152.416 11.733C152.261 12.1193 152.183 12.5871 152.183 13.1364C152.183 13.6932 152.259 14.1667 152.411 14.5568C152.566 14.947 152.784 15.2443 153.064 15.4489C153.344 15.6534 153.672 15.7557 154.047 15.7557C154.323 15.7557 154.571 15.6989 154.791 15.5852C155.015 15.4716 155.198 15.3068 155.342 15.0909C155.49 14.8712 155.587 14.608 155.632 14.3011H157.916C157.878 14.9678 157.696 15.5549 157.371 16.0625C157.049 16.5663 156.604 16.9602 156.036 17.2443C155.467 17.5284 154.795 17.6705 154.018 17.6705ZM161.659 14.9886L161.665 12.0852H162.017L164.812 8.77273H167.591L163.835 13.1591H163.261L161.659 14.9886ZM159.466 17.5V5.86364H161.886V17.5H159.466ZM164.92 17.5L162.352 13.6989L163.966 11.9886L167.756 17.5H164.92ZM172.396 17.6705C171.499 17.6705 170.726 17.4886 170.078 17.125C169.434 16.7576 168.938 16.2386 168.589 15.5682C168.241 14.8939 168.067 14.0966 168.067 13.1761C168.067 12.2784 168.241 11.4905 168.589 10.8125C168.938 10.1345 169.429 9.60606 170.061 9.22727C170.697 8.84848 171.444 8.65909 172.3 8.65909C172.875 8.65909 173.411 8.75189 173.908 8.9375C174.408 9.11932 174.843 9.39394 175.214 9.76136C175.589 10.1288 175.881 10.5909 176.089 11.1477C176.298 11.7008 176.402 12.3485 176.402 13.0909V13.7557H169.033V12.2557H174.124C174.124 11.9072 174.048 11.5985 173.896 11.3295C173.745 11.0606 173.535 10.8504 173.266 10.6989C173 10.5436 172.692 10.4659 172.339 10.4659C171.972 10.4659 171.646 10.5511 171.362 10.7216C171.082 10.8883 170.862 11.1136 170.703 11.3977C170.544 11.678 170.463 11.9905 170.459 12.3352V13.7614C170.459 14.1932 170.538 14.5663 170.697 14.8807C170.86 15.1951 171.089 15.4375 171.385 15.608C171.68 15.7784 172.031 15.8636 172.436 15.8636C172.705 15.8636 172.951 15.8258 173.175 15.75C173.398 15.6742 173.589 15.5606 173.749 15.4091C173.908 15.2576 174.029 15.072 174.112 14.8523L176.351 15C176.237 15.5379 176.004 16.0076 175.652 16.4091C175.304 16.8068 174.853 17.1174 174.3 17.3409C173.75 17.5606 173.116 17.6705 172.396 17.6705ZM177.982 17.5V8.77273H180.328V10.2955H180.419C180.578 9.75379 180.845 9.3447 181.22 9.06818C181.595 8.78788 182.027 8.64773 182.516 8.64773C182.637 8.64773 182.768 8.6553 182.908 8.67045C183.048 8.68561 183.171 8.70644 183.277 8.73295V10.8807C183.163 10.8466 183.006 10.8163 182.805 10.7898C182.605 10.7633 182.421 10.75 182.254 10.75C181.898 10.75 181.58 10.8277 181.3 10.983C181.023 11.1345 180.804 11.3466 180.641 11.6193C180.482 11.892 180.402 12.2064 180.402 12.5625V17.5H177.982Z" fill="#E4E4E7"/>
<path d="M80.8395 17.5V5.86364H85.4304C86.313 5.86364 87.0649 6.0322 87.6861 6.36932C88.3073 6.70265 88.7808 7.16667 89.1065 7.76136C89.4361 8.35227 89.6009 9.03409 89.6009 9.80682C89.6009 10.5795 89.4342 11.2614 89.1009 11.8523C88.7675 12.4432 88.2846 12.9034 87.652 13.233C87.0232 13.5625 86.2618 13.7273 85.3679 13.7273H82.4418V11.7557H84.9702C85.4437 11.7557 85.8338 11.6742 86.1406 11.5114C86.4512 11.3447 86.6823 11.1155 86.8338 10.8239C86.9891 10.5284 87.0668 10.1894 87.0668 9.80682C87.0668 9.42045 86.9891 9.08333 86.8338 8.79545C86.6823 8.50379 86.4512 8.27841 86.1406 8.11932C85.83 7.95644 85.4361 7.875 84.9588 7.875H83.2997V17.5H80.8395ZM91.1534 17.5V8.77273H93.5V10.2955H93.5909C93.75 9.75379 94.017 9.3447 94.392 9.06818C94.767 8.78788 95.1989 8.64773 95.6875 8.64773C95.8087 8.64773 95.9394 8.6553 96.0795 8.67045C96.2197 8.68561 96.3428 8.70644 96.4489 8.73295V10.8807C96.3352 10.8466 96.178 10.8163 95.9773 10.7898C95.7765 10.7633 95.5928 10.75 95.4261 10.75C95.0701 10.75 94.7519 10.8277 94.4716 10.983C94.1951 11.1345 93.9754 11.3466 93.8125 11.6193C93.6534 11.892 93.5739 12.2064 93.5739 12.5625V17.5H91.1534ZM97.7003 17.5V8.77273H100.121V17.5H97.7003ZM98.9162 7.64773C98.5563 7.64773 98.2476 7.52841 97.9901 7.28977C97.7363 7.04735 97.6094 6.75758 97.6094 6.42045C97.6094 6.08712 97.7363 5.80114 97.9901 5.5625C98.2476 5.32008 98.5563 5.19886 98.9162 5.19886C99.276 5.19886 99.5829 5.32008 99.8366 5.5625C100.094 5.80114 100.223 6.08712 100.223 6.42045C100.223 6.75758 100.094 7.04735 99.8366 7.28977C99.5829 7.52841 99.276 7.64773 98.9162 7.64773ZM106.003 17.6705C105.109 17.6705 104.34 17.4811 103.696 17.1023C103.056 16.7197 102.563 16.1894 102.219 15.5114C101.878 14.8333 101.707 14.053 101.707 13.1705C101.707 12.2765 101.88 11.4924 102.224 10.8182C102.573 10.1402 103.067 9.61174 103.707 9.23295C104.348 8.85038 105.109 8.65909 105.991 8.65909C106.753 8.65909 107.42 8.79735 107.991 9.07386C108.563 9.35038 109.016 9.73864 109.349 10.2386C109.683 10.7386 109.866 11.3258 109.901 12H107.616C107.552 11.5644 107.382 11.214 107.105 10.9489C106.832 10.6799 106.474 10.5455 106.031 10.5455C105.656 10.5455 105.329 10.6477 105.048 10.8523C104.772 11.053 104.556 11.3466 104.401 11.733C104.245 12.1193 104.168 12.5871 104.168 13.1364C104.168 13.6932 104.243 14.1667 104.395 14.5568C104.55 14.947 104.768 15.2443 105.048 15.4489C105.329 15.6534 105.656 15.7557 106.031 15.7557C106.308 15.7557 106.556 15.6989 106.776 15.5852C106.999 15.4716 107.183 15.3068 107.327 15.0909C107.474 14.8712 107.571 14.608 107.616 14.3011H109.901C109.863 14.9678 109.681 15.5549 109.355 16.0625C109.033 16.5663 108.588 16.9602 108.02 17.2443C107.452 17.5284 106.779 17.6705 106.003 17.6705ZM115.428 17.6705C114.53 17.6705 113.757 17.4886 113.109 17.125C112.465 16.7576 111.969 16.2386 111.621 15.5682C111.272 14.8939 111.098 14.0966 111.098 13.1761C111.098 12.2784 111.272 11.4905 111.621 10.8125C111.969 10.1345 112.46 9.60606 113.092 9.22727C113.729 8.84848 114.475 8.65909 115.331 8.65909C115.907 8.65909 116.443 8.75189 116.939 8.9375C117.439 9.11932 117.875 9.39394 118.246 9.76136C118.621 10.1288 118.912 10.5909 119.121 11.1477C119.329 11.7008 119.433 12.3485 119.433 13.0909V13.7557H112.064V12.2557H117.155C117.155 11.9072 117.079 11.5985 116.928 11.3295C116.776 11.0606 116.566 10.8504 116.297 10.6989C116.032 10.5436 115.723 10.4659 115.371 10.4659C115.003 10.4659 114.678 10.5511 114.393 10.7216C114.113 10.8883 113.893 11.1136 113.734 11.3977C113.575 11.678 113.494 11.9905 113.49 12.3352V13.7614C113.49 14.1932 113.57 14.5663 113.729 14.8807C113.892 15.1951 114.121 15.4375 114.416 15.608C114.712 15.7784 115.062 15.8636 115.467 15.8636C115.736 15.8636 115.982 15.8258 116.206 15.75C116.429 15.6742 116.621 15.5606 116.78 15.4091C116.939 15.2576 117.06 15.072 117.143 14.8523L119.382 15C119.268 15.5379 119.036 16.0076 118.683 16.4091C118.335 16.8068 117.884 17.1174 117.331 17.3409C116.782 17.5606 116.147 17.6705 115.428 17.6705Z" fill="#22C55E"/>
<path d="M213 21L208.7 16.7M211 11C211 15.4183 207.418 19 203 19C198.582 19 195 15.4183 195 11C195 6.58172 198.582 3 203 3C207.418 3 211 6.58172 211 11Z" stroke="#22C55E" stroke-width="2" stroke-linecap="round" stroke-linejoin="round"/>
<g clip-path="url(#clip0_423_585)">
<path d="M204.5 6V7M204.5 15V16M198 12.5H199M198 9.5H199M207 12.5H208M207 9.5H208M201.5 6V7M201.5 15V16M200 7H206C206.552 7 207 7.44772 207 8V14C207 14.5523 206.552 15 206 15H200C199.448 15 199 14.5523 199 14V8C199 7.44772 199.448 7 200 7ZM202 9.5H204C204.276 9.5 204.5 9.72386 204.5 10V12C204.5 12.2761 204.276 12.5 204 12.5H202C201.724 12.5 201.5 12.2761 201.5 12V10C201.5 9.72386 201.724 9.5 202 9.5Z" stroke="#22C55E" stroke-linecap="round" stroke-linejoin="round"/>
</g>
<defs>
<clipPath id="clip0_423_585">
<rect width="12" height="12" fill="white" transform="translate(197 5)"/>
</clipPath>
</defs>
</svg>
